<svg xmlns="http://www.w3.org/2000/svg" xmlns:xlink="http://www.w3.org/1999/xlink" width="500" zoomAndPan="magnify" viewBox="0 0 375 374.999991" height="500" preserveAspectRatio="xMidYMid meet" version="1.0"><defs><clipPath id="092a965670"><path d="M 74 18.039062 L 332 18.039062 L 332 289 L 74 289 Z M 74 18.039062 " clip-rule="nonzero"/></clipPath></defs><path fill="#1c7941" d="M 373.660156 170.65625 L 64.652344 60.625 L 56.496094 84.390625 L 171.789062 248.914062 L 365.246094 194.328125 L 373.660156 170.65625 " fill-opacity="1" fill-rule="nonzero"/><path fill="#1c7941" d="M 373.660156 170.65625 L 64.652344 60.625 L 56.496094 84.390625 L 180.019531 225.761719 L 365.246094 194.328125 L 373.660156 170.65625 " fill-opacity="1" fill-rule="nonzero"/><path fill="#28b661" d="M 365.398438 193.898438 L 56.390625 83.863281 L 65.066406 60.28125 L 250.042969 28.761719 L 373.8125 170.226562 L 365.398438 193.898438 " fill-opacity="1" fill-rule="nonzero"/><g clip-path="url(#092a965670)"><path fill="#d9f4de" d="M 253.214844 288.085938 L 331.25 86.347656 L 155 18.050781 L 74.597656 226.289062 L 253.214844 288.085938 " fill-opacity="1" fill-rule="nonzero"/></g><path fill="#13542d" d="M 180.019531 225.761719 L 56.496094 84.390625 L 171.789062 248.914062 L 365.246094 194.328125 L 180.019531 225.761719 " fill-opacity="1" fill-rule="nonzero"/><path fill="#1d8044" d="M 192.824219 189.734375 L 5.445312 227.195312 L 4.078125 231.042969 C 0.359375 241.5 5.820312 252.996094 16.277344 256.722656 L 287.4375 353.28125 C 297.886719 357 309.367188 351.535156 313.085938 341.074219 L 314.453125 337.226562 L 192.824219 189.734375 " fill-opacity="1" fill-rule="nonzero"/><path fill="#28b661" d="M 184.457031 213.28125 L 5.445312 227.195312 L 4.078125 231.042969 C 0.359375 241.5 5.820312 252.996094 16.277344 256.722656 L 287.4375 353.28125 C 297.886719 357 309.367188 351.535156 313.085938 341.074219 L 314.453125 337.226562 L 184.457031 213.28125 " fill-opacity="1" fill-rule="nonzero"/><path fill="#28b661" d="M 314.453125 337.226562 L 365.246094 194.328125 L 228.445312 232.929688 Z M 314.453125 337.226562 " fill-opacity="1" fill-rule="nonzero"/><path fill="#28b661" d="M 56.496094 84.390625 L 57.460938 81.582031 C 57 82.445312 56.578125 83.347656 56.238281 84.296875 L 5.445312 227.195312 L 138 200.699219 L 56.496094 84.390625 " fill-opacity="1" fill-rule="nonzero"/><path fill="#1c7941" d="M 228.414062 119.003906 L 227.46875 122.226562 L 225.109375 130.285156 L 220.0625 147.507812 C 218.042969 148.585938 216.144531 149.296875 214.371094 149.65625 C 212.597656 150.011719 210.691406 149.890625 208.644531 149.289062 C 204.75 148.148438 202.394531 145.832031 201.578125 142.339844 C 200.761719 138.851562 201.269531 133.996094 203.089844 127.773438 C 203.464844 126.496094 203.871094 125.308594 204.3125 124.179688 C 205.5 121.132812 206.925781 118.640625 208.601562 116.691406 C 209.09375 116.109375 209.597656 115.5625 210.136719 115.082031 C 210.574219 114.6875 211.023438 114.347656 211.480469 114.03125 C 212.152344 113.566406 212.851562 113.1875 213.5625 112.894531 C 215.667969 112.050781 217.921875 111.976562 220.328125 112.683594 C 222.054688 113.191406 223.558594 113.832031 224.824219 114.609375 C 225.910156 115.28125 227.03125 116.144531 228.1875 117.1875 C 228.386719 117.367188 228.582031 117.539062 228.785156 117.730469 Z M 267.382812 130.4375 C 267.414062 129.855469 267.433594 129.285156 267.449219 128.707031 C 267.484375 127.53125 267.484375 126.359375 267.441406 125.203125 C 267.402344 124.210938 267.335938 123.222656 267.238281 122.246094 C 266.550781 115.34375 264.644531 109.046875 261.527344 103.339844 C 258.492188 97.65625 254.328125 92.714844 249.046875 88.511719 C 243.753906 84.308594 237.652344 81.191406 230.726562 79.160156 C 223.757812 77.117188 216.792969 76.503906 209.820312 77.324219 C 202.847656 78.148438 196.46875 80.1875 190.683594 83.449219 C 184.757812 86.757812 179.574219 91.15625 175.152344 96.636719 C 174.828125 97.03125 174.53125 97.445312 174.222656 97.855469 C 173.507812 98.792969 172.8125 99.757812 172.164062 100.75 C 171.851562 101.234375 171.546875 101.730469 171.246094 102.230469 C 170.652344 103.210938 170.082031 104.203125 169.539062 105.230469 C 168.261719 107.683594 167.148438 110.273438 166.203125 113 C 165.886719 113.9375 165.578125 114.882812 165.296875 115.847656 C 163.070312 123.453125 162.261719 130.828125 162.882812 137.984375 C 163.5 145.136719 165.371094 151.628906 168.492188 157.464844 C 171.640625 163.351562 175.910156 168.429688 181.304688 172.710938 C 186.695312 176.988281 192.996094 180.183594 200.195312 182.292969 C 204.488281 183.554688 208.507812 184.496094 212.25 185.125 C 216 185.753906 219.828125 186.195312 223.726562 186.4375 L 227.082031 174.976562 C 223.492188 174.992188 219.476562 174.679688 215.03125 174.035156 C 210.585938 173.394531 206.691406 172.589844 203.351562 171.609375 C 198.324219 170.132812 193.800781 167.84375 189.800781 164.742188 C 185.792969 161.640625 182.582031 157.898438 180.152344 153.503906 C 177.738281 149.078125 176.246094 143.976562 175.695312 138.210938 C 175.144531 132.445312 175.847656 126.21875 177.808594 119.519531 C 178.09375 118.546875 178.410156 117.609375 178.742188 116.679688 C 179.71875 113.9375 180.898438 111.359375 182.289062 108.972656 C 182.875 107.949219 183.511719 106.976562 184.179688 106.027344 C 184.523438 105.539062 184.867188 105.054688 185.230469 104.582031 C 185.5 104.226562 185.773438 103.867188 186.050781 103.527344 C 186.546875 102.917969 187.050781 102.335938 187.5625 101.765625 C 190.855469 98.101562 194.449219 95.21875 198.347656 93.144531 C 202.746094 90.800781 207.488281 89.304688 212.570312 88.652344 C 217.644531 88.003906 222.683594 88.410156 227.675781 89.878906 C 232.90625 91.414062 237.527344 93.667969 241.523438 96.632812 C 245.519531 99.605469 248.695312 103.273438 251.050781 107.644531 C 253.222656 111.691406 254.523438 116.332031 254.980469 121.546875 C 255 121.824219 255.03125 122.105469 255.054688 122.390625 C 255.109375 123.273438 255.132812 124.175781 255.132812 125.09375 C 255.132812 125.664062 255.128906 126.246094 255.109375 126.835938 C 255.0625 127.957031 254.96875 129.097656 254.84375 130.257812 C 254.542969 132.917969 254.03125 135.679688 253.285156 138.550781 C 253.101562 139.265625 252.902344 139.988281 252.691406 140.71875 C 251.710938 144.070312 250.34375 147.464844 248.59375 150.902344 C 246.835938 154.347656 244.796875 157.417969 242.464844 160.113281 L 232.433594 157.167969 L 239.101562 134.390625 L 241.464844 126.332031 L 242.40625 123.109375 L 242.878906 121.496094 L 243.824219 118.273438 L 246.554688 108.953125 L 232.855469 104.9375 L 231.78125 108.601562 C 230.988281 107.210938 229.734375 105.746094 228.011719 104.1875 C 226.28125 102.632812 224.121094 101.476562 221.519531 100.714844 C 218.496094 99.828125 215.242188 99.640625 211.753906 100.15625 C 208.265625 100.675781 205.078125 101.875 202.171875 103.757812 C 201.390625 104.265625 200.632812 104.804688 199.894531 105.386719 C 198.878906 106.1875 197.917969 107.085938 196.988281 108.03125 C 196.550781 108.480469 196.105469 108.921875 195.683594 109.398438 C 195.078125 110.097656 194.492188 110.8125 193.917969 111.574219 C 193.761719 111.789062 193.605469 112.019531 193.449219 112.246094 C 191.917969 114.433594 190.597656 116.957031 189.492188 119.832031 C 189.03125 121.027344 188.601562 122.28125 188.21875 123.601562 C 185.589844 132.578125 185.488281 140.304688 187.910156 146.769531 C 190.335938 153.230469 194.753906 157.40625 201.164062 159.285156 C 205.101562 160.445312 208.246094 160.882812 210.585938 160.609375 C 212.929688 160.335938 215.445312 159.777344 218.125 158.9375 L 217.722656 163.824219 L 247.59375 172.589844 C 251.054688 169.539062 254.398438 165.402344 257.640625 160.167969 C 260.882812 154.941406 263.3125 149.570312 264.929688 144.054688 C 265.117188 143.40625 265.277344 142.765625 265.445312 142.117188 C 266.183594 139.308594 266.71875 136.546875 267.058594 133.84375 C 267.195312 132.695312 267.3125 131.5625 267.382812 130.4375 " fill-opacity="1" fill-rule="nonzero"/></svg>